<?xml version="1.0" standalone="no"?>
<!DOCTYPE svg PUBLIC "-//W3C//DTD SVG 20010904//EN"
 "http://www.w3.org/TR/2001/REC-SVG-20010904/DTD/svg10.dtd">
<svg version="1.0" xmlns="http://www.w3.org/2000/svg"
 width="1024.000000pt" height="1024.000000pt" viewBox="0 0 1024.000000 1024.000000"
 preserveAspectRatio="xMidYMid meet">

<g transform="translate(0.000000,1024.000000) scale(0.100000,-0.100000)"
fill="#000000" stroke="none">
<path d="M5060 8987 c-30 -16 -344 -249 -1715 -1273 -387 -288 -620 -469 -635
-492 l-25 -36 0 -1392 c0 -1391 0 -1393 21 -1420 11 -15 33 -37 48 -48 27 -21
37 -21 889 -24 636 -2 869 1 890 9 38 16 57 57 57 123 0 47 -4 61 -29 88 l-29
33 -801 0 -801 0 0 1270 1 1270 290 215 c160 118 501 371 757 563 257 191 617
458 799 595 183 136 339 246 346 246 8 -1 369 -267 803 -591 434 -324 923
-689 1087 -811 l297 -222 -2 -1265 -3 -1265 -725 -1 c-399 -1 -760 -5 -803 -8
-71 -5 -81 -9 -104 -35 -22 -26 -25 -36 -21 -93 3 -53 9 -68 31 -91 l27 -27
874 0 c872 0 875 0 903 21 15 11 38 36 51 54 l22 33 0 1381 0 1381 -23 40
c-24 43 -156 145 -1152 885 -286 212 -656 488 -824 613 -168 126 -323 240
-344 254 -45 31 -120 41 -157 20z"/>
<path d="M5028 7393 c-106 -104 -168 -187 -228 -308 -68 -136 -91 -230 -91
-375 0 -209 59 -359 241 -615 l100 -140 -1 -240 0 -240 -33 100 c-86 260 -167
413 -306 575 -133 154 -361 294 -562 345 -117 29 -301 46 -408 38 -77 -6 -78
-6 -84 -36 -9 -46 13 -240 39 -343 32 -127 76 -227 147 -334 113 -173 268
-304 472 -401 133 -63 249 -95 451 -124 186 -26 184 -26 246 -117 l39 -57 0
-125 c0 -99 -3 -126 -13 -126 -32 0 -138 -64 -177 -106 -23 -25 -54 -71 -68
-102 -24 -50 -27 -70 -27 -158 0 -96 2 -105 35 -169 42 -82 109 -142 197 -175
75 -28 203 -25 276 8 70 31 149 111 183 185 53 118 33 282 -47 384 -42 53
-105 100 -161 119 l-48 16 0 133 0 133 45 61 c25 34 55 65 68 70 12 5 69 14
127 20 338 39 587 143 792 330 217 200 348 504 348 811 l0 97 -73 7 c-76 7
-274 -7 -355 -24 -434 -95 -760 -411 -907 -878 -20 -64 -41 -128 -45 -142 -5
-15 -9 78 -9 221 l-1 247 62 73 c191 227 279 440 280 669 0 198 -60 371 -189
545 -61 81 -204 225 -224 225 -6 0 -47 -35 -91 -77z m130 -335 c49 -71 91
-164 108 -235 24 -101 14 -274 -20 -373 -30 -86 -106 -233 -121 -233 -14 0
-76 104 -108 183 -94 227 -70 467 66 658 17 23 34 42 38 42 5 0 21 -19 37 -42z
m-1035 -818 c296 -99 550 -346 686 -668 12 -30 21 -56 19 -58 -7 -7 -223 54
-303 86 -239 94 -438 269 -545 480 -23 45 -70 175 -70 193 0 17 117 -1 213
-33z m2201 13 c-33 -138 -121 -288 -239 -408 -163 -166 -315 -248 -576 -309
l-100 -24 7 22 c15 47 76 166 122 237 116 178 276 325 448 410 100 51 250 98
312 99 30 0 32 -2 26 -27z m-1107 -1656 c18 -20 35 -48 39 -62 17 -67 -30
-144 -99 -163 -47 -13 -91 -1 -129 34 -95 92 -26 241 106 231 42 -4 55 -10 83
-40z"/>
<path d="M5107 3843 c-12 -11 -8 -1134 4 -1178 27 -100 101 -147 233 -148 119
-1 126 5 126 106 0 92 -8 107 -55 107 -17 0 -36 5 -43 12 -9 9 -12 144 -12
548 0 404 -3 539 -12 548 -13 13 -229 18 -241 5z"/>
<path d="M1913 3775 c-11 -8 -13 -115 -11 -625 l3 -615 108 -5 c60 -3 117 -2
128 2 18 7 19 25 19 622 0 460 -3 617 -12 622 -18 11 -219 10 -235 -1z"/>
<path d="M3987 3778 c-16 -12 -17 -57 -15 -628 l3 -615 105 -5 c163 -8 150
-26 150 203 l0 194 178 5 c149 5 188 9 245 28 126 43 221 130 263 243 28 77
26 241 -5 319 -28 71 -102 154 -169 191 -104 56 -181 68 -472 73 -203 3 -270
1 -283 -8z m563 -222 c86 -32 130 -96 130 -191 0 -64 -18 -112 -57 -150 -53
-51 -115 -68 -263 -69 l-125 -1 -3 205 c-1 112 0 211 3 219 8 20 252 10 315
-13z"/>
<path d="M7907 3694 c-4 -4 -7 -56 -7 -115 l0 -108 -82 -3 -83 -3 -3 -97 c-3
-96 -2 -98 22 -104 14 -3 52 -4 85 -2 l59 3 5 -270 c2 -176 8 -283 16 -309 17
-53 82 -119 144 -147 95 -43 331 -26 350 25 3 7 -7 46 -21 88 l-26 75 -71 -5
c-138 -9 -145 7 -145 315 l0 228 103 -3 c81 -3 106 0 116 11 8 10 11 45 9 104
l-3 88 -112 3 -112 3 -3 112 -3 112 -116 3 c-63 1 -118 -1 -122 -4z"/>
<path d="M5955 3489 c-32 -5 -81 -16 -107 -25 -87 -28 -198 -115 -198 -153 0
-6 32 -37 72 -71 l72 -60 35 34 c55 52 97 69 181 73 64 4 82 1 119 -19 59 -30
83 -65 89 -127 l5 -51 -129 0 c-277 -1 -404 -45 -467 -164 -32 -60 -32 -212 0
-272 55 -103 155 -149 318 -148 115 2 195 25 257 75 l38 30 16 -38 c9 -21 18
-40 20 -42 9 -10 189 1 197 12 4 7 6 156 4 332 -3 298 -5 325 -26 388 -42 129
-143 203 -309 227 -77 11 -104 11 -187 -1z m265 -597 c0 -59 -44 -138 -94
-167 -80 -47 -207 -42 -255 9 -29 31 -33 92 -8 130 33 50 86 66 230 66 l127 0
0 -38z"/>
<path d="M7150 3487 c-66 -15 -138 -55 -174 -97 l-25 -31 -15 34 c-7 19 -17
43 -20 55 -4 12 -15 22 -24 23 -31 2 -187 -3 -190 -6 -2 -2 -4 -745 -2 -927 0
-5 52 -8 115 -8 103 0 115 2 125 19 6 12 10 123 10 289 0 289 6 330 53 380 36
39 72 52 144 52 85 0 137 -27 167 -85 20 -38 21 -58 24 -340 2 -165 7 -304 11
-308 15 -15 223 -10 233 5 5 7 7 153 5 338 -5 359 -9 386 -70 477 -72 108
-224 162 -367 130z"/>
<path d="M2781 3478 c-44 -12 -113 -60 -138 -94 l-19 -26 -21 53 -20 54 -102
3 -101 3 2 -468 3 -468 114 -3 c85 -2 117 1 123 10 4 7 8 146 8 308 0 287 1
297 23 340 28 56 72 80 147 80 62 0 108 -22 137 -67 16 -24 19 -61 23 -348 l5
-320 115 0 115 0 5 310 c5 336 6 340 65 395 37 34 145 41 192 11 66 -41 68
-52 71 -396 2 -170 7 -314 12 -319 13 -13 223 -7 233 7 4 7 6 163 4 347 -3
290 -6 342 -21 386 -28 79 -82 144 -151 179 -54 27 -67 30 -159 30 -90 0 -107
-3 -151 -26 -27 -15 -69 -47 -93 -70 -41 -42 -44 -43 -54 -24 -24 43 -89 95
-140 110 -57 17 -174 19 -227 3z"/>
<path d="M3424 2071 c-54 -25 -91 -74 -105 -141 -23 -105 10 -214 78 -260 32
-22 48 -25 118 -25 74 0 85 3 119 29 42 32 63 73 73 141 l6 45 -87 0 -86 0 0
-30 c0 -29 2 -30 45 -30 53 0 58 -13 20 -58 -52 -62 -160 -47 -197 28 -22 43
-24 137 -4 184 19 47 51 66 109 66 43 0 54 -5 84 -35 27 -27 42 -34 69 -33 19
1 34 7 34 13 0 19 -42 76 -73 99 -40 29 -147 33 -203 7z"/>
<path d="M6210 2074 c-81 -35 -114 -96 -114 -209 0 -114 34 -175 117 -210 76
-32 181 -13 240 43 76 73 71 271 -10 344 -51 47 -164 62 -233 32z m169 -79
c38 -33 54 -83 49 -154 -5 -68 -28 -104 -81 -126 -67 -27 -139 7 -166 78 -17
45 -13 124 8 166 23 45 50 59 113 60 36 1 53 -5 77 -24z"/>
<path d="M7182 2073 c-57 -28 -77 -94 -47 -153 15 -29 64 -59 145 -90 47 -18
80 -49 80 -76 0 -30 -22 -46 -75 -52 -42 -4 -48 -2 -80 32 -30 32 -39 37 -65
31 -26 -6 -30 -10 -24 -28 19 -65 71 -97 158 -97 106 0 156 39 156 121 0 64
-24 91 -117 129 -43 18 -86 39 -95 48 -24 21 -23 69 1 82 46 24 131 1 131 -36
0 -15 65 -21 74 -6 11 18 -30 78 -64 94 -44 23 -134 23 -178 1z"/>
<path d="M2210 1860 l0 -220 35 0 35 0 0 220 0 220 -35 0 -35 0 0 -220z"/>
<path d="M2710 2050 l0 -30 70 0 70 0 0 -190 0 -190 40 0 40 0 0 190 0 190 65
0 65 0 0 30 0 30 -175 0 -175 0 0 -30z"/>
<path d="M3840 1860 l0 -220 35 0 35 0 0 80 0 80 43 0 44 0 44 -80 c44 -79 51
-85 97 -72 22 7 21 9 -27 87 -44 71 -48 81 -32 87 10 3 30 20 44 38 35 41 38
123 6 164 -36 46 -69 56 -184 56 l-105 0 0 -220z m214 139 c33 -26 36 -79 6
-109 -16 -16 -33 -20 -85 -20 l-65 0 0 75 0 75 59 0 c44 0 65 -5 85 -21z"/>
<path d="M4280 1860 l0 -220 140 0 140 0 0 35 0 35 -100 0 -100 0 0 60 0 60
85 0 85 0 0 35 0 35 -85 0 -85 0 0 60 0 60 100 0 100 0 0 30 0 30 -140 0 -140
0 0 -220z"/>
<path d="M4690 1860 l0 -220 140 0 140 0 0 35 0 35 -105 0 -105 0 0 60 0 60
90 0 90 0 0 35 0 35 -87 0 -88 0 0 60 0 60 98 0 97 0 0 30 0 30 -135 0 -135 0
0 -220z"/>
<path d="M5100 1861 l0 -221 35 0 35 0 2 164 3 165 105 -165 105 -164 37 0 38
0 0 220 0 220 -35 0 -35 0 -2 -159 -3 -159 -101 156 -101 157 -41 3 -42 3 0
-220z"/>
<path d="M5600 1860 l0 -220 39 0 40 0 -2 95 -2 95 108 0 107 0 0 -95 0 -95
35 0 35 0 0 220 0 220 -35 0 -35 0 0 -90 0 -90 -107 0 -108 0 2 90 2 90 -40 0
-39 0 0 -220z"/>
<path d="M6632 1922 c5 -174 17 -216 71 -256 41 -30 173 -30 214 0 59 45 68
73 71 252 l4 162 -35 0 -35 0 -4 -159 c-3 -150 -4 -161 -26 -184 -27 -29 -80
-40 -123 -25 -50 17 -59 49 -59 218 l0 150 -41 0 -42 0 5 -158z"/>
<path d="M7570 1860 l0 -220 135 0 135 0 0 35 0 35 -100 0 -100 0 0 60 0 60
85 0 85 0 0 35 0 35 -85 0 -85 0 0 60 0 60 100 0 100 0 0 30 0 30 -135 0 -135
0 0 -220z"/>
<path d="M2465 1950 c-57 -28 -79 -70 -79 -147 0 -71 16 -101 74 -140 65 -45
172 -22 217 46 18 26 23 48 23 96 0 48 -5 70 -23 96 -44 67 -135 88 -212 49z
m132 -64 c25 -21 28 -31 28 -81 0 -50 -3 -60 -28 -81 -65 -56 -137 -10 -137
86 0 33 6 48 29 71 36 36 70 37 108 5z"/>
</g>
</svg>
